# xmcd
#
# Track frame offsets:
#	300
#	23663
#	45702
#	71486
#	90588
#	115679
#	138710
#	154376
#	175030
#	195861
#	213689
#	230864
#	251189
#	266580
#	287208
#
# Disc length: 4164 seconds
#
# Revision: 2
# Processed by: cddbd v1.5.1PL0 Copyright (c) Steve Scherf et al.
# Submitted via: audiograbber 1.82.01
#
DISCID=e010400f
DTITLE=Inga Rumpf - Easy In My Soul
DYEAR=2005
DGENRE=Blues
TTITLE0=No Cross - No Crown
TTITLE1=Up To Your Room
TTITLE2=The Sun Is Going Down
TTITLE3=Easy (In My Soul)
TTITLE4=I Don´t Ask Why
TTITLE5=Walk Away
TTITLE6=Come And Go
TTITLE7=Since You're Gone
TTITLE8=More Than I Can Tell
TTITLE9=All Free
TTITLE10=Perfect Love
TTITLE11=My Sigh Needs A Home
TTITLE12=Over The Hill
TTITLE13=Heaven Is A Satellite
TTITLE14=Sternenzelt
EXTD=
EXTT0=
EXTT1=
EXTT2=
EXTT3=
EXTT4=
EXTT5=
EXTT6=
EXTT7=
EXTT8=
EXTT9=
EXTT10=
EXTT11=
EXTT12=
EXTT13=
EXTT14=
PLAYORDER=
